<?xml version="1.0" encoding="UTF-8"?>
<svg id="Layer_1" data-name="Layer 1" xmlns="http://www.w3.org/2000/svg" viewBox="0 0 100 100">
  <defs>
    <style>
      .cls-1 {
        fill: #fff;
      }

      .cls-2 {
        fill: #34364c;
      }
    </style>
  </defs>
  <path class="cls-2" d="m90.14,80.41v11.24c0,3.53-2.86,6.38-6.38,6.38H29.75c-3.53,0-6.38-2.86-6.38-6.38v-11.24c0-3.05,2.16-5.68,5.16-6.26l5.66-1.11c-1-1.2-1.79-2.37-2.4-3.43-4-6.9-4.69-15.7-1.92-24.78,2.19-7.21,6.52-14.26,12.39-20.27-.72-1.81-1.1-3.76-1.1-5.74,0-8.61,7-15.61,15.61-15.61s15.61,7,15.61,15.61c0,1.98-.38,3.93-1.1,5.74,5.87,6.02,10.19,13.06,12.39,20.27,2.76,9.08,2.08,17.88-1.92,24.78-.62,1.06-1.4,2.23-2.4,3.43l5.66,1.11c3,.59,5.16,3.21,5.16,6.26Z"/>
  <path class="cls-1" d="m83.76,80.41v11.24H29.75v-11.24l20.69-4.05c-8.6-2.97-12-8-13.13-9.95-6.26-10.79-1.7-28.21,13.15-40.79l.03-.04c-1.82-1.68-2.96-4.09-2.96-6.77,0-5.1,4.13-9.23,9.23-9.23s9.23,4.13,9.23,9.23c0,.97-.15,1.94-.44,2.87-.29.91-.7,1.63-1.26,2.39-1.12,1.53-2.3,3.02-3.24,4.67-.93,1.62-1.79,3.28-2.55,4.99-.76,1.69-1.43,3.42-2,5.18-.24.76-.47,1.52-.68,2.28-1.41,5.18-1.78,9.78-1.78,13.27h5.76c.01-2.88.43-8.15,3.33-13.85,2.02-3.98,4.54-6.76,6.39-8.49,9.6,11.59,11.93,25.26,6.7,34.29-1.13,1.95-4.53,6.98-13.13,9.95l20.69,4.05Z"/>
</svg>