<?xml version="1.0" encoding="UTF-8"?>
<svg id="Layer_1" data-name="Layer 1" xmlns="http://www.w3.org/2000/svg" viewBox="0 0 100 100">
  <defs>
    <style>
      .cls-1 {
        fill: #fff;
      }

      .cls-2 {
        fill: #34364c;
      }
    </style>
  </defs>
  <path class="cls-2" d="m37.66,98.03c-1.74,0-3.4-.71-4.61-1.96-1.2-1.25-1.84-2.95-1.77-4.68.15-3.68.8-7.13,1.92-10.3-1.85.77-3.76,1.16-5.68,1.16-.82,0-1.65-.07-2.46-.22-4.99-.89-9.32-4.44-11.29-9.25-1.82-4.45-1.51-9.84.85-14.79,1.46-3.06,3.48-5.4,5.26-7.46,1.19-1.38,2.31-2.68,3.06-3.97.66-1.14.7-1.39.87-2.4.34-2.05.8-4.21,2.59-8.13,1.95-4.27,4.61-10.12,10.75-14.31,1.08-.74,2.21-1.39,3.38-1.95-.04-.43-.06-.86-.08-1.3-.16-5.3,1.6-9.5,3.1-12.09,1.05-1.81,2.93-2.99,5.01-3.16.17-.01.34-.02.51-.02,1.91,0,3.73.86,4.94,2.35l10.89,13.36c2.95.75,5.72,1.88,8.26,3.39,14.78,8.74,17.74,27.06,20.12,41.78,1.48,9.12,1.94,18.53,1.38,27.96-.2,3.37-2.99,6-6.37,6h-50.66Z"/>
  <path class="cls-1" d="m87.01,65.08c-2.24-13.87-4.86-30.09-17.07-37.3-3.29-1.95-6.44-2.74-8.55-3.12l-12.31-15.09c-.82,1.41-2.37,4.54-2.25,8.7.07,2.42.68,4.37,1.22,5.66-1.76.35-4.52,1.13-7.3,3.04-4.57,3.12-6.62,7.49-8.54,11.69-3.11,6.82-1.21,6.7-3.75,11.08-2.3,3.97-6.08,6.78-8.08,10.98-1.41,2.95-1.97,6.52-.7,9.62,1.11,2.7,3.61,4.87,6.51,5.39,3.25.58,6.25-1.06,8.56-3.21,1.54-1.44,3.05-2.9,4.67-4.25,1.43-1.19,3.05-2.16,4.71-3.01,1.45-.73,2.97-1.29,4.37-2.12,1.58-.92,3.07-2.01,4.31-3.36,2.46-2.66,3.39-5.8,3.77-7.92.4,2.67.57,6.61-1.08,10.66-3.12,7.64-9.93,8.77-14.5,16.76-1.46,2.56-3.1,6.54-3.34,12.36h50.66c.66-11.16-.29-20.27-1.31-26.57Zm-40.8-19.19c-2.31,0-4.19-1.88-4.19-4.19s1.88-4.19,4.19-4.19,4.19,1.88,4.19,4.19-1.88,4.19-4.19,4.19Z"/>
</svg>