<?xml version="1.0" encoding="UTF-8"?>
<svg id="Layer_1" data-name="Layer 1" xmlns="http://www.w3.org/2000/svg" viewBox="0 0 100 100">
  <defs>
    <style>
      .cls-1 {
        fill: #fff;
      }

      .cls-2 {
        fill: #34364c;
      }
    </style>
  </defs>
  <path class="cls-2" d="m22.33,98.03c-3.52,0-6.38-2.86-6.38-6.38v-12.29c0-1.34.42-2.64,1.2-3.72l7.67-10.68.1-4.34c0-.19.02-.38.04-.57l2.77-24.55-9.31-7.21c-1.56-1.21-2.47-3.07-2.47-5.04v-13.67c0-3.52,2.86-6.38,6.38-6.38h14.77c1.07,0,2.07.26,2.95.72.88-.46,1.89-.72,2.95-.72h15.53c1.07,0,2.07.26,2.95.72.88-.46,1.89-.72,2.95-.72h14.77c3.52,0,6.38,2.86,6.38,6.38v13.67c0,1.97-.91,3.84-2.47,5.04l-9.31,7.21,2.77,24.55c.02.19.03.38.04.57l.1,4.34,7.67,10.68c.78,1.08,1.2,2.39,1.2,3.72v12.29c0,3.52-2.86,6.38-6.38,6.38H22.33Z"/>
  <g>
    <polygon class="cls-1" points="50.77 67.08 31.15 67.08 22.33 79.36 22.33 91.65 50.77 91.65 79.21 91.65 79.21 79.36 70.39 67.08 50.77 67.08"/>
    <polygon class="cls-1" points="64.44 9.58 64.44 18.98 58.54 18.98 58.54 9.58 50.77 9.58 43 9.58 43 18.98 37.1 18.98 37.1 9.58 22.33 9.58 22.33 23.25 34.47 32.66 31.3 60.77 50.77 60.77 70.24 60.77 67.07 32.66 79.21 23.25 79.21 9.58 64.44 9.58"/>
  </g>
</svg>