<?xml version="1.0" encoding="UTF-8"?>
<svg id="Layer_1" data-name="Layer 1" xmlns="http://www.w3.org/2000/svg" viewBox="0 0 100 100">
  <defs>
    <style>
      .cls-1 {
        fill: #fff;
      }

      .cls-2 {
        fill: #34364c;
      }
    </style>
  </defs>
  <path class="cls-1" d="m87.02,26.34c-1.32-1.64-6.23-7.05-14.12-8.07-.84-.11-1.69-.16-2.53-.16-1.4,0-2.69.15-3.88.38v-2.55c-.02-3.52-2.87-6.36-6.39-6.36h-1.51v-.61c0-3.52-2.86-6.38-6.38-6.38h-8.3c-3.52,0-6.38,2.86-6.38,6.38v.61h-1.51c-3.52,0-6.37,2.84-6.38,6.36v2.55c-1.19-.23-2.49-.38-3.88-.38-.84,0-1.69.05-2.53.16-7.89,1.02-12.81,6.44-14.12,8.07-7.89,9.79-5.76,25.03.75,33.54,1.55,2.02,3.42,3.83,7.16,7.43,1.15,1.11,2.14,2.02,2.93,2.75,2.13,1.97,2.77,2.58,3.4,3.67,0,0,0,0,0,0l-4.63.67c-3.14.45-5.47,3.14-5.47,6.31v10.32c0,3.52,2.86,6.38,6.38,6.38h56.88c3.52,0,6.38-2.86,6.38-6.38v-10.32c0-3.17-2.33-5.86-5.47-6.31l-4.63-.67s0,0,0,0c.63-1.09,1.27-1.71,3.4-3.67.79-.73,1.78-1.64,2.94-2.76,3.73-3.59,5.6-5.39,7.15-7.42,6.51-8.5,8.65-23.74.75-33.53Z"/>
  <path class="cls-2" d="m82.05,30.35c-.57-.7-4.13-4.99-9.97-5.75-3.81-.49-6.79.76-9.03,1.69-4.98,2.09-8.23,5.45-10.1,7.84-.15-3.19-.31-6.38-.46-9.57h7.63l-.03-8.6h-7.89v-6.99h-8.3v6.99h-7.89l-.03,8.6h7.63c-.15,3.19-.31,6.38-.46,9.57-1.87-2.39-5.12-5.75-10.1-7.84-2.23-.93-5.21-2.18-9.03-1.69-5.84.75-9.4,5.04-9.97,5.75-5.84,7.25-4.11,19.17.85,25.65,1.25,1.64,3.05,3.37,6.52,6.71,4.21,4.05,5.88,5.15,7.43,7.83,1.66,2.87,2.2,5.88,2.29,8.5l-11.53,1.67v10.32h56.88v-10.32l-11.53-1.67c.08-2.62.63-5.63,2.29-8.5,1.55-2.68,3.22-3.78,7.43-7.83,3.47-3.34,5.26-5.07,6.52-6.71,4.96-6.48,6.7-18.4.85-25.65Zm-39.95,34.07c-5.75-1.01-11.49-5.11-15.2-9.5-.34-.4-.66-.81-.98-1.23-2.24-3-4.26-6.76-4.28-10.6-.02-3.64,2.65-7.3,6.52-7.25,3.94.05,6.66,3.1,8.59,6.2,2.18,3.48,3.65,7.36,4.55,11.35.5,2.22.78,4.55.87,6.79.01.34.18,4.29-.09,4.24Zm28.09-10.73c-.31.42-.64.83-.98,1.23-3.71,4.39-9.45,8.49-15.2,9.5-.27.05-.1-3.9-.09-4.24.09-2.24.37-4.57.87-6.79.9-4,2.38-7.87,4.55-11.35,1.93-3.1,4.65-6.15,8.59-6.2,3.88-.05,6.54,3.61,6.52,7.25-.02,3.84-2.04,7.6-4.28,10.6Z"/>
</svg>