<?xml version="1.0" encoding="UTF-8"?>
<svg id="Layer_1" data-name="Layer 1" xmlns="http://www.w3.org/2000/svg" viewBox="0 0 100 100">
  <defs>
    <style>
      .cls-1 {
        fill: #fff;
      }

      .cls-2 {
        fill: #34364c;
      }
    </style>
  </defs>
  <path class="cls-1" d="m17.94,97.42c-3.52,0-6.38-2.86-6.38-6.38v-15.1c0-2.29,1.23-4.41,3.22-5.54,6.24-3.56,10.78-7.67,13.57-12.27-2.68-.76-4.65-3.22-4.65-6.14v-10.24c0-2.02.96-3.93,2.59-5.13l2.5-1.85c-1.49-3.06-2.27-6.47-2.27-10.01,0-12.23,9.54-22.18,21.26-22.18s21.26,9.95,21.26,22.18c0,3.54-.79,6.95-2.27,10.01l2.5,1.85c1.63,1.2,2.59,3.11,2.59,5.13v10.24c0,2.92-1.96,5.39-4.65,6.14,2.79,4.6,7.34,8.71,13.57,12.27,1.99,1.14,3.22,3.25,3.22,5.54v15.1c0,3.52-2.86,6.38-6.38,6.38H17.94Z"/>
  <path class="cls-2" d="m77.61,75.94v15.1H17.94v-15.1c6.84-3.91,15.97-10.83,19.05-21.8.2-.72.37-1.44.52-2.16h-7.42v-10.24l7.46-5.52c-2.86-2.88-4.65-6.95-4.65-11.47,0-8.72,6.66-15.8,14.88-15.8s14.88,7.07,14.88,15.8c0,4.52-1.79,8.59-4.65,11.47l7.46,5.52v10.24h-7.42c.14.72.31,1.44.51,2.16,3.08,10.97,12.21,17.89,19.05,21.8Z"/>
</svg>