<?xml version="1.0" encoding="UTF-8"?>
<svg id="Layer_1" data-name="Layer 1" xmlns="http://www.w3.org/2000/svg" viewBox="0 0 100 100">
  <defs>
    <style>
      .cls-1 {
        fill: #fff;
      }

      .cls-2 {
        fill: #34364c;
      }
    </style>
  </defs>
  <path class="cls-1" d="m23.79,97.14c-3.52,0-6.38-2.86-6.38-6.38v-10.38c0-2.79,1.81-5.23,4.41-6.07l-3.54-6.02c-.28-.47-.49-.98-.64-1.51l-6.54-23.38c-5.77-1.45-10.05-6.68-10.05-12.9,0-7.33,5.97-13.3,13.3-13.3s13.3,5.97,13.3,13.3c0,1.4-.22,2.78-.64,4.08l1.7,1.55,1.01-9.28c-3.28-2.43-5.35-6.33-5.35-10.68,0-7.33,5.97-13.3,13.3-13.3,5.59,0,10.39,3.47,12.35,8.37,1.96-4.9,6.76-8.37,12.35-8.37,7.33,0,13.3,5.97,13.3,13.3,0,4.42-2.18,8.39-5.57,10.82l.99,9.14,1.88-1.72c-.39-1.26-.59-2.57-.59-3.91,0-7.33,5.97-13.3,13.3-13.3s13.3,5.97,13.3,13.3c0,6.3-4.41,11.6-10.31,12.96l-6.52,23.32c-.15.53-.36,1.04-.64,1.51l-3.54,6.02c2.61.84,4.41,3.28,4.41,6.07v10.38c0,3.52-2.86,6.38-6.38,6.38H23.79ZM49.88,29.99l2.28-5.3c-.9-1.08-1.63-2.3-2.15-3.61-.55,1.39-1.34,2.68-2.32,3.8l2.19,5.1Z"/>
  <path class="cls-2" d="m85.65,23.58c-3.82,0-6.92,3.1-6.92,6.92,0,2.05.89,3.89,2.31,5.16h0s-14.97,13.66-14.97,13.66l-2.85-26.29c3.41-.43,6.04-3.34,6.04-6.86,0-3.82-3.1-6.92-6.92-6.92s-6.92,3.1-6.92,6.92c0,2.99,1.89,5.53,4.54,6.5h0s-10.09,23.49-10.09,23.49l-10.06-23.42c2.76-.91,4.75-3.51,4.75-6.57,0-3.82-3.1-6.92-6.92-6.92s-6.92,3.1-6.92,6.92c0,3.44,2.52,6.3,5.81,6.83l-2.85,26.32-14.86-13.55c1.49-1.27,2.43-3.16,2.43-5.26,0-3.82-3.1-6.92-6.92-6.92s-6.92,3.1-6.92,6.92,3.1,6.92,6.92,6.92c.57,0,1.12-.07,1.65-.2l7.79,27.84,8.02,13.67-8.02,1.66v10.38h52.19v-10.38l-8.02-1.66,8.02-13.67,7.81-27.9c.6.17,1.22.26,1.87.26,3.82,0,6.92-3.1,6.92-6.92s-3.1-6.92-6.92-6.92Z"/>
</svg>